<svg width="512" height="512" viewBox="0 0 512 512" xmlns="http://www.w3.org/2000/svg" role="img" aria-label="Virgin Modem Status logo">
  <defs>
    <linearGradient id="g" x1="0" x2="1" y1="0" y2="1">
      <stop offset="0%" stop-color="#e60023"/>
      <stop offset="100%" stop-color="#b0001a"/>
    </linearGradient>
    <filter id="s" x="-20%" y="-20%" width="140%" height="140%">
      <feDropShadow dx="0" dy="8" stdDeviation="16" flood-opacity="0.18"/>
    </filter>
  </defs>

  <!-- background card -->
  <rect x="32" y="32" width="448" height="448" rx="48" fill="url(#g)"/>

  <!-- modem body -->
  <g transform="translate(96,140)" fill="white">
    <rect x="0" y="0" width="320" height="176" rx="20" opacity="0.18"/>
    <rect x="16" y="24" width="288" height="128" rx="12" filter="url(#s)" opacity="0.1"/>
    <rect x="16" y="24" width="288" height="128" rx="12" opacity="0.95"/>

    <!-- LED pills -->
    <rect x="44" y="78" width="20" height="20" rx="6" fill="#32d583"/>
    <rect x="84" y="78" width="20" height="20" rx="6" fill="#f59e0b"/>
    <rect x="124" y="78" width="20" height="20" rx="6" fill="#ef4444"/>

    <!-- ventilation dots -->
    <g opacity="0.35">
      <circle cx="220" cy="54" r="4"/>
      <circle cx="236" cy="54" r="4"/>
      <circle cx="252" cy="54" r="4"/>
      <circle cx="268" cy="54" r="4"/>
      <circle cx="220" cy="122" r="4"/>
      <circle cx="236" cy="122" r="4"/>
      <circle cx="252" cy="122" r="4"/>
      <circle cx="268" cy="122" r="4"/>
    </g>
  </g>

  <!-- status waveform -->
  <path d="M72 360c40 0 48-56 72-56s32 72 64 72 40-104 68-104 36 88 68 88 46-64 96-64"
        fill="none" stroke="#ffffff" stroke-width="14" stroke-linecap="round" stroke-linejoin="round" opacity="0.95"/>

  <!-- small “VM” monogram (optional, generic, not brand trademark) -->
  <g transform="translate(384,104)" fill="#ffffff" opacity="0.9">
    <path d="M0 0 L10 24 L20 0 L26 0 L14 28 L6 28 L-6 0 Z"/>
  </g>
</svg>
